<?xml version="1.0" encoding="utf-8"?>
<!-- Generator: Adobe Illustrator 16.0.0, SVG Export Plug-In . SVG Version: 6.00 Build 0)  -->
<!DOCTYPE svg PUBLIC "-//W3C//DTD SVG 1.1//EN" "http://www.w3.org/Graphics/SVG/1.1/DTD/svg11.dtd">
<svg version="1.1" xmlns="http://www.w3.org/2000/svg" xmlns:xlink="http://www.w3.org/1999/xlink" x="0px" y="0px" width="200px"
	 height="200px" viewBox="0 0 200 200" enable-background="new 0 0 200 200" xml:space="preserve">
<g id="Layer_2">
	<path fill="none" stroke="#EA5858" stroke-width="3" d="M116.749,109.007c0.079,8.736-0.6,17.863-2.874,25.247"/>
	<path fill="none" stroke="#EA5858" stroke-width="3" d="M113.875,75.938c0,0,2.263,12.862,2.88,26.771"/>
</g>
<g id="Layer_1">
	<path fill="none" stroke="#FFFFFF" stroke-width="3" d="M148.803,103.684c-0.438-13.891-3.213-24.528-3.213-24.528
		s-1.928-1.752-3.504-1.752s-3.096,2.453-4.03,2.453s-1.109-2.043-3.505-3.329c-46.667-2.569-56.421,4.206-55.545,2.103
		c0.876-2.103,10.28-7.651,10.28-10.046s-3.213-3.446-3.213-3.446L55.351,65.78c0,0,0.409-1.752-0.175-3.329
		c-0.584-1.577-9.695-2.394-10.863-0.292s0.701,5.607-3.037,7.709c-3.738,2.103-7.943-0.467-10.98,2.103
		c-3.038,2.57-1.869,71.257,0,73.359c1.869,2.103,46.024,2.103,48.127-1.636c2.103-3.737,2.103-10.98,2.103-10.98
		c2.22,1.168,7.417,1.635,7.417,1.635l47.485-0.175l2.277-3.154c2.453,3.329,7.885,0.877,7.885,0.877
		c2.406-8.02,3.238-16.431,3.27-24.122"/>
	<line fill="none" stroke="#83C884" stroke-width="3" x1="40.341" y1="83.536" x2="40.341" y2="130.962"/>
	<polyline opacity="0.7" fill="none" stroke="#FDEA2F" stroke-width="5" points="183.322,105.848 60.433,105.848 60.433,75.709 
		30.529,75.709 	"/>
</g>
<g id="Layer_3">
	<line fill="none" stroke="#7386C3" stroke-width="3" x1="43.144" y1="92.764" x2="69.311" y2="117.763"/>
</g>
</svg>
