<?xml version="1.0" encoding="utf-8"?>
<!-- Generator: Adobe Illustrator 18.0.0, SVG Export Plug-In . SVG Version: 6.00 Build 0)  -->
<!DOCTYPE svg PUBLIC "-//W3C//DTD SVG 1.1//EN" "http://www.w3.org/Graphics/SVG/1.1/DTD/svg11.dtd">
<svg version="1.1" id="Layer_1" xmlns="http://www.w3.org/2000/svg" xmlns:xlink="http://www.w3.org/1999/xlink" x="0px" y="0px"
	 viewBox="0 0 1000 1000" enable-background="new 0 0 1000 1000" xml:space="preserve">
<g>
	<path fill="#ADD9DD" d="M808.3,942H191.7c-67.7,0-123.2-55.4-123.2-123.2V202.1C68.5,134.4,123.9,79,191.7,79h616.7
		c67.7,0,123.2,55.4,123.2,123.2v616.7C931.5,886.6,876.1,942,808.3,942z"/>
	<rect x="68.5" y="343.9" fill="#3EA2C9" width="863" height="333.1"/>
	<circle fill="#E6E7E8" cx="500" cy="510.5" r="283.9"/>
	<circle fill="#365967" cx="500" cy="510.5" r="239.9"/>
	<circle fill="#294854" cx="500" cy="510.5" r="178.5"/>
	<circle fill="#284B5B" cx="500" cy="510.5" r="142.8"/>
	<circle fill="#1F3B47" cx="500" cy="510.5" r="134.8"/>
	<circle fill="#294854" cx="500" cy="510.5" r="91.7"/>
	<circle fill="#15313B" cx="500" cy="510.5" r="82.9"/>
	<circle fill="#06232D" cx="500" cy="510.5" r="43.8"/>
	<circle opacity="0.32" fill="#FFFFFF" cx="456.2" cy="466.6" r="33.8"/>
	<circle opacity="0.32" fill="#FFFFFF" cx="523.7" cy="544.3" r="6.4"/>
	<rect x="220.9" y="58" fill="#66C6DD" width="83.5" height="22.5"/>
	<path fill="#3EA2C9" d="M804.6,231h-70.8c-3.5,0-6.3-2.8-6.3-6.3V177c0-3.5,2.8-6.3,6.3-6.3h70.8c3.5,0,6.3,2.8,6.3,6.3v47.8
		C810.9,228.2,808.1,231,804.6,231z"/>
	<path fill="#ADD9DD" d="M799.8,183.2h-61.4c-0.8,0-1.4,0.6-1.4,1.4v5.7c0,0.8,0.6,1.4,1.4,1.4h61.4c0.8,0,1.4-0.6,1.4-1.4v-5.7
		C801.2,183.8,800.6,183.2,799.8,183.2z"/>
	<path fill="#ADD9DD" d="M799.8,197.3h-61.4c-0.8,0-1.4,0.6-1.4,1.4v5.7c0,0.8,0.6,1.4,1.4,1.4h61.4c0.8,0,1.4-0.6,1.4-1.4v-5.7
		C801.2,197.9,800.6,197.3,799.8,197.3z"/>
	<path fill="#ADD9DD" d="M799.8,211.3h-61.4c-0.8,0-1.4,0.6-1.4,1.4v5.7c0,0.8,0.6,1.4,1.4,1.4h61.4c0.8,0,1.4-0.6,1.4-1.4v-5.7
		C801.2,211.9,800.6,211.3,799.8,211.3z"/>
	<circle fill="#8BB8D1" cx="202.2" cy="820.4" r="13.9"/>
</g>
</svg>
