<?xml version="1.0" encoding="utf-8"?>
<!-- Generator: Adobe Illustrator 18.0.0, SVG Export Plug-In . SVG Version: 6.00 Build 0)  -->
<!DOCTYPE svg PUBLIC "-//W3C//DTD SVG 1.1//EN" "http://www.w3.org/Graphics/SVG/1.1/DTD/svg11.dtd">
<svg version="1.1" id="Layer_1" xmlns="http://www.w3.org/2000/svg" xmlns:xlink="http://www.w3.org/1999/xlink" x="0px" y="0px"
	 viewBox="0 0 512 512" enable-background="new 0 0 512 512" xml:space="preserve">
<g id="icomoon-ignore">
</g>
<path fill="#FFFFFF" d="M224,352h64v64h-64V352z M352,128c17.7,0,32,14.3,32,32v96l-96,64h-64v-32l96-64v-32H160v-64H352z M256,48
	c-55.6,0-107.8,21.6-147.1,60.9S48,200.4,48,256s21.6,107.8,60.9,147.1S200.4,464,256,464s107.8-21.6,147.1-60.9S464,311.6,464,256
	s-21.6-107.8-60.9-147.1S311.6,48,256,48z M256,0L256,0c141.4,0,256,114.6,256,256S397.4,512,256,512S0,397.4,0,256S114.6,0,256,0z"
	/>
</svg>
